<?xml version="1.0" encoding="UTF-8"?>
<svg xmlns="http://www.w3.org/2000/svg" xmlns:xlink="http://www.w3.org/1999/xlink" width="24pt" height="24pt" viewBox="0 0 24 24" version="1.1">
<g id="surface6041073">
<path style=" stroke:none;fill-rule:nonzero;fill:rgb(100%,100%,100%);fill-opacity:1;" d="M 12 2 C 6.484375 2 2 6.484375 2 12 C 2 17.515625 6.484375 22 12 22 C 17.515625 22 22 17.515625 22 12 C 22 10.394531 21.609375 8.882812 20.9375 7.539062 L 19.8125 8.660156 C 20.253906 9.6875 20.5 10.816406 20.5 12 C 20.5 16.6875 16.6875 20.5 12 20.5 C 7.3125 20.5 3.5 16.6875 3.5 12 C 3.5 7.3125 7.3125 3.5 12 3.5 C 14.222656 3.5 16.242188 4.363281 17.757812 5.765625 L 18.820312 4.707031 C 17.03125 3.03125 14.636719 2 12 2 Z M 19.734375 5.492188 C 19.539062 5.5 19.355469 5.582031 19.21875 5.71875 L 10.75 14.191406 L 8.78125 12.21875 C 8.59375 12.023438 8.3125 11.945312 8.050781 12.011719 C 7.789062 12.082031 7.582031 12.289062 7.511719 12.550781 C 7.445312 12.8125 7.523438 13.09375 7.71875 13.28125 L 10.21875 15.78125 C 10.511719 16.074219 10.988281 16.074219 11.28125 15.78125 L 20.28125 6.78125 C 20.5 6.566406 20.566406 6.234375 20.449219 5.949219 C 20.328125 5.664062 20.042969 5.484375 19.734375 5.492188 Z M 19.734375 5.492188 "/>
</g>
</svg>
